# xmcd CD database file
#
# Track frame offsets:
#	150
#	35796
#	57990
#	83284
#	115871
#	138025
#	155150
#	175370
#	204862
#	228690
#	246266
#	272859
#	299238
#	329880
#
# Disc length: 4705 seconds
#
# Revision: 0
# Processed by: cddbd v1.5.2PL0 Copyright (c) Steve Scherf et al.
# Submitted via: CDex 1.79
#
DISCID=d9125f0e
DTITLE=Jimmy Smith - Eight Classic Albums Vol 2   CD4
DYEAR=1900
DGENRE=Jazz
TTITLE0=When Johnny Comes Marchin' Home
TTITLE1=Makin' Whoopee
TTITLE2=A Night in Tunisia
TTITLE3=Sonnymoon for Two
TTITLE4=Mack the Knife
TTITLE5=What's New
TTITLE6=Alfredo
TTITLE7=See See Rider
TTITLE8=Sugar Hill
TTITLE9=I Got A Woman
TTITLE10=Messin' Around
TTITLE11=Gracie
TTITLE12=Come On Baby
TTITLE13=Motorin' Along
EXTD=
EXTT0=
EXTT1=
EXTT2=
EXTT3=
EXTT4=
EXTT5=
EXTT6=
EXTT7=
EXTT8=
EXTT9=
EXTT10=
EXTT11=
EXTT12=
EXTT13=
PLAYORDER=
